<svg id="Layer_1" data-name="Layer 1" 
  xmlns="http://www.w3.org/2000/svg" viewBox="0 0 389.86 392.84">
  <path d="M344.29 302.13c8.66.45 14.76 5.1 21 9.54 7.12 5.05 14.8 8.65 23.88 7.75a9.9 9.9 0 002.68-.46c2.74-1.1 3.83.11 4.47 2.68 1.92 7.72-2.14 19.24-8.46 23.58s-12.54 3.09-18.69-.32A66.41 66.41 0 01363 341c-1.62-1.14-3-1.32-4.13.51-1.37 2.23-2.64 4.52-4.06 7 5.37 2.1 10.33 3.88 15.14 6a41.06 41.06 0 017.92 4.57c3.11 2.31 3.58 5.19 1.23 8.25-3.34 4.36-7.2 8.33-10.56 12.67a119.68 119.68 0 00-7.54 11.05c-2.11 3.47-5.19 5.15-9.17 4.25-4.5-1-8.43-3-11.17-6.93-1.94-2.76-5-1.94-7.53-2a183.61 183.61 0 00-18.61.79c-10.52.94-21.05 2-31.52 3.34-11.91 1.53-23.76 3.51-35.65 5.17-18.28 2.54-36.58 4.23-55.09 2.78-22.13-1.73-44.16-4.14-66.08-7.75a283.15 283.15 0 00-49.87-3.79c-2.44 0-4.89 0-7.33.06-5.31.09-10.17.75-13.5 5.91a9.46 9.46 0 01-7.84 4.71c-2.87.05-4.67-1.08-5.62-3.72-3.5-9.62-9.71-17.4-16.84-24.5-3.92-3.89-4-7.63.8-10.43 5-2.93 10.33-5.21 15.53-7.75.73-.35 1.58-.47 2.29-.84 1.23-.65 2.41-1.42 3.61-2.14a49.19 49.19 0 00-4.41-6.7c-.44-.5-2.65.3-3.91.84-3.53 1.53-6.87 3.6-10.51 4.78C22 349.28 16 347 12 341.27a26.39 26.39 0 01-5-17.89c.34-3.77 2.16-5.12 5.79-3.95 7.57 2.45 14.3 0 20.55-3.84C37.54 313 41 309.44 45 306.7c3.17-2.17 6.75-3.74 10.35-5.69-2.44-2.94-5.47-6.45-8.33-10.08a163.28 163.28 0 01-32.93-72.15 135.73 135.73 0 01-2.06-20c-.44-12.67-.47-25.36-.57-38q-.12-15.56 0-31.11c.08-11.19.39-22.38.39-33.57 0-11.78-.3-23.56-.38-35.35 0-5.07.25-10.15.23-15.23 0-11.82-.09-23.65-.32-35.48-.06-2.93.77-3.84 3.78-3.8 16.84.28 33.69.38 50.54.46 10.19 0 20.38-.07 30.58-.06 13.18 0 26.36.07 39.55.1l53.27.11q22.1 0 44.2.07h86.1c18 0 36-.28 54.05-.42 4.08 0 8.16.09 12.24-.1 2.89-.13 3.89.83 3.87 3.84-.13 18.5-.06 37-.06 55.48v123.2a153.54 153.54 0 01-12.69 60.88 189.44 189.44 0 01-31.29 50.51c-.31.36-.59.88-1.23 1.82zm-138.91-290v32.74q0 22.18-.11 44.36c0 10.66-.07 21.32 0 32 0 7.63.22 15.26.26 22.89 0 8.33-.06 16.66.08 25 0 .71 1.34 1.92 2.15 2a79.83 79.83 0 008.19.09c11.2-.12 22.41-.34 33.61-.38q65.55-.23 131.11-.31c2.39 0 3.05-.78 2.89-3-.27-3.65-.55-7.31-.52-11 .09-11.42.43-22.84.46-34.26.09-35.65 0-71.29.16-106.94 0-2.62-.83-3.24-3.31-3.22-15.31.12-30.62.1-45.93.1q-56.85 0-113.69-.1zm.36 164.05c-.13 1.11-.21 1.5-.21 1.89 0 15.16-.08 30.31-.06 45.46q.08 50.25.2 100.49c0 7.55 0 15.1.26 22.64.18 4.94 2 6.22 6.87 5.82 4.56-.38 9.14-.53 13.67-1.09 10.87-1.36 21.7-2.89 31.91-4.27-.26-2.05-.47-3.72-.67-5.38 1.33 0 3.13-.61 3.88 0 1 .87 1.21 2.69 1.88 4.43A81.59 81.59 0 00300.85 332l-2.41-4c1.11-.67 2.4-2 3.3-1.83 1.15.28 2 1.85 3.16 3.09-.27.16.08 0 .4-.24a205.84 205.84 0 0027.35-23.92c15.81-16.13 28.61-34.27 37.52-55 6.53-15.21 11.95-30.82 12.78-47.54.44-8.81.08-17.66.08-26.37zM17.77 11.7v159.5h176.58c5.06 0 5.06-.13 5.06-4.81v-36.74q0-57.32.05-114.62c0-2.33-.74-2.94-3-2.93-21.19.08-42.39.05-63.59.06H96.56q-21.82 0-43.65-.16c-8.48 0-17-.21-25.42-.3-3.14-.03-6.28 0-9.72 0zM126.9 267h.75a38.88 38.88 0 012.55-4.45c2.93-3.83 7.9-3.92 10.7-.17s2.65 7.87 1 11.91c-1.42 3.48-4.29 5.07-7.46 4.72-3-.33-5.1-2.45-6.1-6-.12-.38-.51-.69-1.23-1.63 0 2.91.13 5.08 0 7.24-.19 2.6-.92 5.18-.91 7.76 0 5.82.38 11.64.58 17.45 0 .3-.12.6-.14.91-.23 2.95-1.74 4.38-4.78 4.29s-5.93 0-8.89 0c-3.48 0-4.72-.93-4.9-4.33-.3-5.36-.36-10.74-.44-16.11 0-1.37.38-2.75.37-4.13 0-2.37-.22-4.75-.29-7.12v-5.12h-1c-.25.73-.5 1.46-.76 2.19a7.48 7.48 0 01-13.55 1.31A10.91 10.91 0 0192 265c1.33-2.87 3.45-4.71 6.77-4.88s5.47 1.69 7 4.5a24.1 24.1 0 002.26 2.88c-1.28-23.83 3-46 8.26-68.37H57.78c-5.93 0-6.54.63-6.4 6.71a14.06 14.06 0 00.2 2.43c1.62 8.48 2.77 17.07 5 25.39a136 136 0 0033.05 58.85 122 122 0 0041.69 28.87 97.06 97.06 0 0029.8 7.47c4.44.39 5.33-.56 5.33-5.1v-31.73-77.52c0-3.47 0-7-.05-10.42-.11-4.33-1.22-5.39-5.53-5.43h-9.19c-7.08 0-14.16 0-21.23.09-3.88.07-7.75.38-11.35.57 6.02 22.32 8.2 44.85 7.8 67.69zM44.22 389.37c5.2-4 11-5.36 16.89-5.7 8.71-.5 17.47-.76 26.19-.43 10.25.39 20.51 1.28 30.71 2.41 11.52 1.28 23 3.16 34.47 4.58 8.47 1 17 1.72 25.48 2.67a249.33 249.33 0 0048.24.88c13.87-1.15 27.65-3.49 41.48-5.15 17.15-2.06 34.29-4.4 51.49-5.78 13.36-1.07 26.89-1.47 39.47 4.66 2.5-4.79-4-3.71-4.25-7.8l7.8 3c.12-.65.59-1.7.33-1.93-1.68-1.48-3.5-2.78-5.77-4.51 3.69-1.95 5.86 1.58 8.65 1.87 2.26-5.08-3.73-4.26-4.93-6.81 2.26-1.24 3.06-1 8.64 2.5 1.13-3.6.86-4-3-5.91-.66-.31-1.07-1.14-1.6-1.72.81-.05 1.74-.39 2.4-.1 2.08.91 4.05 2.06 6.32 3.25 0-.8.36-2-.06-2.45-1.74-1.8-3.72-3.37-6-5.41 3.81-1.11 6 2.23 9.9 3.46-1.24-1.72-1.76-3-2.71-3.65a34.36 34.36 0 00-6.08-3.5c-15.22-6.6-31.31-9.71-47.72-10.69a213.15 213.15 0 00-31.76.54c-15.37 1.4-30.64 3.82-46 5.8-8.35 1.09-16.68 2.69-25.07 3.11a202.61 202.61 0 01-27.1-.48c-14.07-1.17-28.12-2.78-42.11-4.7-15.44-2.13-30.91-3.77-46.49-3.8-8.85 0-17.7.67-26.55 1.18A120.63 120.63 0 0040 356c-4 1.51-7.76 4-11.49 6.26-1.34.81-2.58 2.22-.94 4 2.86-1.69 5.18-4.87 9.59-3.49-2 3-7 3.5-5.36 8.42 2.88-1.33 4.84-4.25 8.54-2.85-1.82 2.51-6.73 2.3-5.17 6.82 3-.33 4.64-4 8.52-2.32a28.08 28.08 0 00-4.25 3.16c-1.13 1.24-1.63 2.82.19 4.08 4.6-3.18 4.73-3.21 6.18-1.39-1.63 1.7-5.21 2-4.22 5.74 2.48 0 3.91-3.65 7-1.85-1.07 2.63-6.06 2.3-4.37 6.79zm127.5-126.65h.11v12.86q.09 34.46.21 68.93c0 1.21-.13 2.76.53 3.54a7.13 7.13 0 003.95 2.45c.8.12 2.25-1.35 2.74-2.41a10.15 10.15 0 00.52-4.18q-.18-68-.43-136V183.7c0-1.1-.26-2.21-.37-3.31-.27-2.49-1.47-4.09-4.15-3.86-2.89.25-3.14 2.41-3.13 4.71v23zM192 282.93h.1v51.78c0 4.69 0 9.38.09 14.06.06 2.69 1.72 3.57 4.28 3.57s3.19-1.45 3.26-3.48c.09-2.43 0-4.86 0-7.28q-.18-51.15-.37-102.28v-56.06a10.41 10.41 0 00-.5-4.2 4.55 4.55 0 00-2.76-2.42c-3.39-.49-4.55.72-4.52 4.34.11 13.16.34 26.32.39 39.48.1 20.83.03 41.66.03 62.49zm-2.73-18.43H189v-70.09c0-4.7 0-9.39-.19-14.08-.08-2.4-1-4.14-3.93-3.83s-2.74 2.3-2.72 4.27c0 4.48.21 9 .23 13.47q.29 55.24.5 110.49c0 7.91-.37 15.82-.38 23.73 0 6.72.25 13.45.41 20.17.06 2.25 1.44 2.78 3.46 2.89 2.2.13 2.58-1.17 2.74-2.8.11-1.11.16-2.23.16-3.35q.02-40.44.01-80.87zM46 278.36c.23-2.83.57-4.88.55-6.93-.23-24.88.76-49.78-1.14-74.64-.34-4.51.62-9.1.75-13.66s-1-6.6-3.32-6.49-3.45 2.08-3.45 6.51v79.66a31.58 31.58 0 00.85 7.25c.76 3.07 2.46 5.68 5.76 8.3zm-10.78-16.22l1.07-.14c.09-1.05.25-2.09.26-3.13v-75.29a11.56 11.56 0 00-.71-4.47c-.44-1-1.75-2.41-2.58-2.35a4.47 4.47 0 00-3.14 2.24 12.39 12.39 0 00-.86 5q-.07 29.22 0 58.45a35.54 35.54 0 00.43 5.15 38.57 38.57 0 005.53 14.54zm344.48 82.08c6.52-.34 12.66-9.17 12.56-17.27 0-2.65-.54-3.52-3.47-3.78a65.14 65.14 0 01-14.52-2.84c-4.45-1.45-8.57-3.94-12.94-6 1 6.1-1.17 11-6 14.62 2.07 3 2.29 3 8.32-.88 1.37 3.38-2.48 3.95-3.28 6.25 3.07 1.45 5.21.29 7.18-2 .49-.55 1.47-.67 2.23-1-.1.88.08 2-.36 2.6a36.6 36.6 0 01-3.37 3.81c3 2 4.79 1.52 7.76-1.79a6.57 6.57 0 012.2-1.09c0 .89.31 2-.09 2.64a41.58 41.58 0 01-3.36 4.28c3.08 1.37 5.79.14 8.32-3.64.47-.69 1.46-1 2.22-1.52.07.94.51 2.08.13 2.77a43.7 43.7 0 01-3.53 4.84zm-356.7.19l.45-.9a39.46 39.46 0 01-3.3-3.93c-.44-.68-.28-1.75-.4-2.64a9.22 9.22 0 012.47.84c1.24.87 2.19 2.2 3.49 2.91 1.74.95 3.51 2.51 5.3 1.53-1.27-1.54-2.66-3-3.78-4.68-.41-.61-.19-1.65-.26-2.49a8 8 0 012.41.58c1.29.79 2.31 2.16 3.67 2.66s3.26.39 4.91.54c.07-.33.13-.66.2-1a9.11 9.11 0 01-2.3-1.82 19.08 19.08 0 01-1.42-3.48 16 16 0 013 .86c2 1 3.82 2.51 5.86-.17a9.83 9.83 0 01-1.9-1.72 17 17 0 01-1.22-2.78 21.57 21.57 0 012.91.29c1.33.32 2.61.81 4.31 1.35-2-3-4.07-5.16-5.07-7.72s-.9-5.43-1.3-8.24c-7.75 6.6-16.03 11.15-26.69 9.32-3.18-.55-4.1.3-3.63 3.41.86 5.79 3 11.06 7.64 14.88 1.31 1.09 3.08 1.62 4.65 2.4zM26.1 240a17.39 17.39 0 00.26-2q.12-26.9.22-53.8a22.05 22.05 0 00-.3-3c-.35-2.41-1.23-4.51-4.13-4.35s-4.15 2.15-4.1 4.77c.11 9.66.09 19.33.63 29 .57 10.17 3.72 19.84 7.42 29.38zm92.09-27l-.67.05a14.25 14.25 0 00-.83 2.57c-1.46 12-3 24-4.22 36a41.18 41.18 0 00.46 10c.31 2.18 1.22 4.37 4.25 4.29s4.44-1.88 4.53-4.59c.16-4.75.27-9.53 0-14.27-.49-8.41-1.22-16.82-2-25.21-.28-2.98-1-5.91-1.52-8.84zm-43 107.94c2.8 7.92.23 15.68-2.09 23.36l33.72-1.3zm251-.38l-30.94 22.55h32.95c-.64-7.9-1.35-15.8-1.95-22.58zm-277.06-91v35.95c0 5.2-.17 10.41.17 15.59a12.42 12.42 0 006 9.71c.51-20.63 3.7-41.42-6.11-61.25zM59 256.81v37.54c0 2.74 3 5.78 6.27 6.53a35.28 35.28 0 00.56-4.15c.06-5.92-.3-11.86.1-17.76.55-8.05-2.38-14.84-6.93-22.16zm10.26 18.38a9.47 9.47 0 00-.69 2c0 8.07-.27 16.15 0 24.2a10.87 10.87 0 005.76 9.61 15.32 15.32 0 00.67-3.1q.08-10.57 0-21.15c0-4.57-2.48-7.94-5.79-11.56zm266 69c-.53-6.07-.78-12.08 1.75-17.76 2.36-5.32 5.56-10.15 11.65-11.61 2.63-.63 5.54-.11 8.3-.11-.43-3.58-2.42-5.05-6.45-4.6-9 1-18.56 10.88-19.32 20.23-.42 5.06.4 9.87 4.06 13.86zM45.09 317.74c5.29-3.26 10.53-3.11 15 .39 6.23 4.85 8.48 11.7 7.77 19.51-.22 2.48-.65 4.94-1 7.42a2.91 2.91 0 002.14-1.45c3.74-7.83 4.27-15.61-.75-23.12s-11.44-10.11-19-7.92c-2.44.72-4.01 2.15-4.16 5.17zm33.41-30.25a16.87 16.87 0 00-.8 3.27c0 6.52-.35 13.06.13 19.55.18 2.48 2.09 4.87 3.41 7.2a2.41 2.41 0 002.1.81c.42-.09.84-1.26.86-2 .14-6.41.3-12.83.25-19.24-.04-3.95-2.7-6.51-5.95-9.59zm15.2 37.83c0-6.19-.1-12.38 0-18.56.09-4.22-2.66-6.25-6-8.87-.19 1.64-.4 2.68-.41 3.72-.06 4.6-.21 9.2 0 13.79a18.67 18.67 0 001.44 6.93c.71 1.6 1.96 3.67 4.97 2.99zm19.61 2.7c0-2.24.41-4.59-.12-6.7a15.41 15.41 0 00-3.15-5.53c-.51-.63-2.15-.8-3.06-.51-.53.18-.87 1.66-.9 2.57-.17 4.38-.23 8.76-.28 13.14a6.34 6.34 0 003.82 6.38c2.33 1.1 3.44.64 3.63-2 .2-2.44.06-4.9.06-7.37zm227.83 18c.25-4 0-7.41.73-10.61 1.68-7.77 5.67-14.58 13.9-13.51 1.27-2.93.59-4.19-2.5-4.35a9.22 9.22 0 00-3 .4c-10.72 3-14.36 17.81-11.74 24.87.47 1.18 1.59 2 2.61 3.18zM96.62 317.76h-.1c0 2.55-.11 5.11 0 7.65s.88 4.83 3.48 6c1.74.79 2.8.38 2.87-1.65q.24-7.59.43-15.2c.06-2.83-1.43-4.81-3.7-6.27-1.77-1.14-2.95-.74-3 1.51-.03 2.65.02 5.31.02 7.96zM61.2 346.08c2.65.11 2.91-1.9 3.33-3.45a21.93 21.93 0 00-1.37-15.14c-2.69-5.94-7.17-9-12.65-8.73-3.06.14-3.89 1.27-3.35 4.56 5.39-1.41 8.41-.16 11.37 4.81 3.27 5.51 3.25 11.56 2.67 17.95zm61.1-4.08c.22-2.79.61-5.61.61-8.42 0-3.14.07-6.41-.78-9.37-.43-1.48-2.83-2.4-4.34-3.58-.57 1.38-1.55 2.74-1.63 4.15-.22 4-.13 8-.06 11.93s1.96 5.55 6.2 5.29zm3.22-8.14h-.11c.12 2.64.12 5.28.39 7.89.2 1.88 1.54 3.12 3.36 2.63a4 4 0 002.46-2.67c.38-4 .37-8.05.39-12.09a3 3 0 00-.77-2.22 11.42 11.42 0 00-4.23-1.75c-.32-.05-1.26 1.93-1.42 3.05a35.48 35.48 0 00-.07 5.15zm9.36 2.62h.18c0 2.23-.31 4.52.13 6.66a4.17 4.17 0 002.84 2.41c.95.19 3.06-.81 3.1-1.37a70.77 70.77 0 00-.09-12.94c-.13-1-3-1.67-4.69-2.5a17.52 17.52 0 00-1.41 3.48 24.18 24.18 0 00-.06 4.25zm34.49 5.62h-.17c0-1.92.11-3.85 0-5.76-.13-1.71-1.3-2.64-2.94-2.13-1.15.35-2.95 1.25-3 2a54 54 0 00.2 10.86c.13 1 2.22 2.33 3.44 2.37.81 0 2-1.88 2.43-3.12s.04-2.81.04-4.23zm-25-2.83c0 1.64-.4 3.41.13 4.86a5 5 0 003.05 2.64c.84.22 2.93-.91 3-1.54a54.42 54.42 0 00-.12-11.2c-.13-.94-2.57-1.87-4.08-2.15-.46-.08-1.62 1.93-1.92 3.13a17.77 17.77 0 00-.1 4.25zm15.78 1.73c0-1.53.36-3.18-.11-4.55a4.3 4.3 0 00-2.73-2.53c-1.06-.19-3.34.78-3.38 1.35a49.54 49.54 0 00.31 10.89c.15.95 2.61 1.73 4.13 2.11.32.08 1.45-1.87 1.7-3a20.34 20.34 0 00.08-4.27zm194-16.07c-4.48.58-9 6.52-9.52 12.69-.24 3.08-1.35 6.72 2 9.27a66.52 66.52 0 012-8 69.88 69.88 0 013.77-7.34c-1.8-2.71-1.8-2.71 1.75-6.67zm-237-27.47c-4 0-5.22 1-5.23 4.2s1.9 4.83 5.34 4.82c3.82 0 5.32-1.32 5.31-4.64s-1.28-4.43-5.45-4.43zm-11.42-115v1.88c-.13 2.43 0 4.6 3.34 4.54 3 0 3.89-.88 3.92-4.42a30.34 30.34 0 00-.56-5.44c-.39-2.17-1.8-2.73-3.86-2.13-3.43.93-2.96 3.62-2.87 5.51zm-11.12 87.33c-.2 3.09 1.76 5.92 4.25 6.09 2.27.16 4.21-2.12 4.46-5.23s-1.73-6.35-4.11-6.51c-2.6-.14-4.34 1.96-4.6 5.65zm-45.82 56c2.7 1.74 4.5 3.18 2.47 5.93-.26.34.52 1.63 1 2.32a18.21 18.21 0 013.47 10.84V347l1.19.06c2.94-4.22 1.74-8.91.47-13.46-1.49-5.39-4.21-7.93-8.6-7.76zm68.76-31.1a11 11 0 001.83-.14c2.28-.42 3.67-1.66 3.58-4.15s-1.7-3.57-4-3.73a21.49 21.49 0 00-4.24.15c-2.22.27-3.09 1.76-3.07 3.85.06 2.82 1.71 4.06 5.9 4.07zm-59.2-112a33 33 0 00.4 4.17c.59 2.63 2.83 2.08 4.46 1.76a3.59 3.59 0 002.08-2.55 51.51 51.51 0 00.07-6.58c0-1.94-1.25-3.07-2.81-2.84a6.22 6.22 0 00-3.66 2.43c-.66.98-.42 2.57-.54 3.65zm57.26 0h.07c0 1.21-.05 2.43 0 3.64.11 2.19 1.56 2.5 3.4 2.49s3.33-.39 3.34-2.56c0-2.42.19-5-.44-7.24-.3-1.08-2.34-2.31-3.57-2.29-1 0-2.1 1.76-2.73 3-.41.76-.07 1.96-.07 2.97zm-37.95.31c0 1.22-.35 2.59.1 3.61a3.76 3.76 0 002.6 2c1.24 0 3.48-.79 3.58-1.48a25.55 25.55 0 00-.12-8.14c-.18-1-2.19-2.48-3.1-2.31-1.17.22-2.33 1.74-3 3-.44.9-.06 2.21-.06 3.32zm-28.94 0h.16v1.22c0 3.95.52 4.43 3.61 4.56 3.57.16 3.28-2.26 3.23-4.52a15.1 15.1 0 00-.5-4.82c-.42-1.14-1.65-2.65-2.63-2.73s-2.59 1.09-3.2 2.14-.48 2.78-.67 4.15zm45.07.69a25.15 25.15 0 00-.52-4.54 3.62 3.62 0 00-1.89-2.33 4.72 4.72 0 00-3.36.73c-1.42 1-1.65 9.14-.43 10.47a2.82 2.82 0 001.58.72c3.76.62 4.52-.25 4.62-5.02zm40.55-.85h.17v2.14c.11 2.36 1.06 3.81 3.71 3.79s3.13-1.91 3.05-3.92a25.52 25.52 0 00-.86-6.3 3.35 3.35 0 00-2.56-1.92 4.14 4.14 0 00-2.85 2c-.6 1.28-.47 2.84-.66 4.24zm-63.12 136.9c-1.33-7.91-7.17-13.28-15-13.83-4.13-.29-8.69 2.07-9.56 4.93 9.4-4.24 13.99-2.58 24.56 8.9zm79.53-136.15c-.3-1.78-.29-3.7-1-5.29-.4-.88-2-1.57-3.11-1.65-.78-.05-2.3 1-2.37 1.69a57 57 0 000 8.47c0 .58.88 1.33 1.52 1.61 3.12 1.42 4.73-.22 4.96-4.83zm2.55-.68v2.44c.07 3 2.85 4.82 5 2.88 1.2-1.07 1.69-3.57 1.56-5.36-.16-2.32.93-5.8-3-6.28-2.62-.33-3.56 1.51-3.56 6.32zm-21.6.33h-.07c0-1.12.08-2.25 0-3.36-.16-1.95-1-3.4-3.21-3.3s-3 1.45-3.1 3.45 0 3.88 0 5.82c0 2.46 1.58 3 3.69 3s2.81-1.21 2.71-3.13c-.06-.85-.02-1.67-.02-2.48zm-28.73.6a37.23 37.23 0 01-.37-3.94c0-1.93-.72-3.32-2.71-3.3s-3.29 1.43-3.36 3.58c0 1.73.12 3.48 0 5.2-.27 2.81 1.13 3.54 3.64 3.44 3.73-.14 2.28-3.04 2.83-4.98zm36.3 85l.64-.62c-1.39-1.51-2.54-3.85-4.23-4.34-2.59-.75-3.33 1.93-4 4a5.26 5.26 0 00-.17 1.2c-.22 3.12 1.31 6.09 3.4 6 3.16-.08 3.79-2.51 4.06-5.09a10.14 10.14 0 01.3-1.18zm-64.65-85.66v-2.76c.05-1.95-.54-3.68-2.7-3.71s-3.39 1.6-3.46 3.83v5.21c-.08 2.41 1.11 3.08 3.41 3.12 2.5 0 2.93-1.23 2.8-3.24-.09-.82-.05-1.63-.05-2.45zm88.24-.46a10.25 10.25 0 00.08 3.33c.36 1 1.42 2.62 2 2.56 1.24-.11 3.36-1.14 3.4-1.88a34.45 34.45 0 00-.76-8.64c-.13-.66-1.93-1.44-2.87-1.34-.7.08-1.56 1.4-1.81 2.32a14.77 14.77 0 00-.04 3.65zm-45.57 94.77h-2.73c-2-.06-3 1-3 2.93s.78 3.56 3.19 3.51h2.43c4.46 0 5.92-.8 5.8-3.35-.23-4.04-3.33-2.93-5.69-3.09zm232.91 30a13.67 13.67 0 00-19.2 13.78c5.82-9.7 10.14-12.88 19.2-13.77zm-232.59-32.73a6.64 6.64 0 002.61-.49c.94-.61 2.17-1.76 2.13-2.62a3.56 3.56 0 00-2.35-2.38 10.52 10.52 0 00-5.08.09c-1 .27-2.33 1.64-2.32 2.51s1.34 1.93 2.31 2.6c.58.39 1.56.19 2.7.29zm-72.07 62.31L52 348.3c.45-1.05 1.36-2.11 1.17-2.91a30.33 30.33 0 00-2.55-7.65c-1.74-3.15-3-3.05-5.08-.67zM350.87 348c2.4-4.24 4.37-7.71 6.39-11.29-2.14-2.62-3.18-2.73-4.81.35a32 32 0 00-2.62 7.68c-.21.88.65 2.06 1.04 3.26zm-5.08 39.32a6.88 6.88 0 0010.29 3zm-291.88 2.13c-4.86.36-7.28 2.05-7.4 5.07 3.43-.09 5.36-2.21 7.4-5.07zM156.55 195.1l3.13-1.71c-1-.6-2-1.65-3-1.68s-2.14.91-3.21 1.43zm-47.48-.57c.11.19.22.38.34.57l3.08-2c-1.1-.41-2.19-.87-3.31-1.2a2.43 2.43 0 00-1.51 0 12.52 12.52 0 00-1.83 1.2 9.72 9.72 0 001.72 1.32 3.78 3.78 0 001.51.11zm10 .62l3.2-1.85c-1.07-.46-2.15-1.3-3.22-1.3s-2.14.85-3.21 1.33zm-53.25-.63c-1.47-3.3-3.85-2.49-5.81-2.46-.46 0-.91.86-1.37 1.32.52.38 1 1 1.57 1.08 1.63.15 3.32.06 5.57.06zm72.45.59l2.72-1.86c-1-.45-2.09-1.27-3.12-1.25s-2 .89-3.05 1.38zm-53.9-.65c-1.11-2.39-5-3.39-6.17-2-.23.29.36 1.85.67 1.88a51.85 51.85 0 005.46.12zm6.27-3.31l-3.31 2.32c1.2.5 2.38 1.3 3.61 1.38.8.06 1.68-.92 2.52-1.44zm56.68.16l-3.05 1.81c1 .47 1.94 1.29 2.93 1.32s1.92-.75 2.88-1.18zm-18.76 0l-3 1.8c1 .47 1.95 1.31 2.9 1.29s2.11-.82 3.16-1.28zm-25.81 3.14c-1.13-2.43-4.24-3.38-5.59-2.12a1.48 1.48 0 00-.4 1.28 1.51 1.51 0 001.13.8c1.45.14 2.95.08 4.82.08zm-28.06 0c-1-2.43-4.29-3.41-5.51-2.09-.24.26-.49.87-.36 1a2.29 2.29 0 001.3 1c1.35.24 2.75.15 4.53.15zM50 193.23c1.52 1.91 3.3 1.37 5 1 .2 0 .23-.84.35-1.29-1.4-.17-2.79-.37-4.19-.46-.35-.02-.67.39-1.16.75z" transform="translate(-6.96 -6.17)"/>
  <path d="M270.63 55.21a65 65 0 01.05-6.87c.26-2.39.42-5 1.53-7 1.87-3.45 5.37-3.6 9.16-2.7l.83-2.64c1.23-3.76 4.33-5.61 8.11-4.54 1.53.43 2.4.4 3.2-1.13 1.43-2.72 3.9-3.26 6.79-3a5 5 0 003.47-.8c2.2-2.09 4.47-3.22 7.44-2a7.34 7.34 0 014.79 7.2c.11 5.08.05 10.16.06 15.24v12.39c2.28-1.83 3.71-3.2 5.34-4.23 2.57-1.63 5.32-2.69 8.37-1.12 1.68.87 2.54 2.16 1.5 4-3.35 5.88-3.27 12.33-3.17 18.77.14 9.19.06 18.39.57 27.55.45 7.8-2.68 13.65-8.49 18.34a8.36 8.36 0 00-3.35 7.13c.09 5.92 0 11.84 0 17.76 0 4.93-1.79 7.57-6.54 8.5-11.21 2.18-22.46 2.42-33.63-.27-5.11-1.23-6.39-3.06-6.36-8.17 0-3.06-.17-6.14.05-9.18a11.17 11.17 0 00-4.75-10.37c-4.63-3.44-6.12-7.85-6-13.54.25-16.74 0-33.49.05-50.24-.03-7.74 2.8-10.2 10.98-9.08zM286 94.32h-.11v53.82c0 2.25.09 4.59 3.08 4.65 3.27.06 3.2-2.43 3.2-4.77 0-12.24.12-24.49.09-36.74 0-3.13.14-6.42-.74-9.35a26.22 26.22 0 01-.6-13.83 40.78 40.78 0 001.2-8.69c.12-11.84 0-23.68 0-35.52a20.61 20.61 0 00-.41-5.1 3.88 3.88 0 00-2.06-2.57 3.72 3.72 0 00-3 1.41 5.35 5.35 0 00-.66 3.14q-.05 26.77.01 53.55zm26.14-3.81H312V35.38a11.44 11.44 0 00-.72-4.45 3.25 3.25 0 00-2.55-1.51c-.67 0-1.55 1.11-1.93 1.92a6.49 6.49 0 00-.28 2.7c0 12.26-.17 24.51 0 36.76.07 5.78.73 11.56.94 17.34.12 3.52-.06 7.06-.22 10.58-.05 1.2-.62 2.39-.61 3.59.05 14.77.17 29.54.28 44.32 0 2-.48 4.59 2.54 4.58s2.37-2.75 2.72-4.64a3.11 3.11 0 000-.61zm-37.29 6.54h.29v48.06a9.45 9.45 0 00.6 4.18 4.11 4.11 0 003 1.85c.71 0 1.76-1.3 2.15-2.24a8.85 8.85 0 00.3-3.32v-15.83q0-41.07.05-82.13c0-.91.13-2-.34-2.67-.71-1-1.9-2.22-2.87-2.21a3.87 3.87 0 00-2.68 2.33 15.89 15.89 0 00-.49 5.13q-.06 23.43-.04 46.85zM270 125.48a12.54 12.54 0 00.45-2.21q0-29.25-.12-58.5a10.08 10.08 0 00-1.13-4.35 2.9 2.9 0 00-2.46-1.28 3.59 3.59 0 00-2.21 2.1 15.88 15.88 0 00-.56 4.82c.05 9.47.18 18.94.26 28.4.06 7.25 0 14.49.19 21.73a10.07 10.07 0 005.58 9.29zm46.74-7.39a11.32 11.32 0 006.6-10c.29-4.15-.17-8.36-.16-12.53 0-8.55-.07-17.11.31-25.65.17-3.66 1.39-7.27 2.13-10.9-2.69.09-4.06.91-5.69 3.7A30.32 30.32 0 00316.06 78c-.13 11.74-.06 23.48 0 35.22a40.92 40.92 0 00.65 4.87zm-15.28-42L302 76V36.65c0-1.9.25-4.38-2.5-4.38s-2.81 2.47-3.1 4.5a8.27 8.27 0 000 1.22v37.53l1 .08c.62-.92 1.25-1.83 2.08-3zm-4.52 34.56V149.92c0 1.77.45 3.34 2.63 3.38s2.2-1.72 2.46-3.21a9.75 9.75 0 000-1.53v-34.53c0-1.06-.1-2.11-.2-4-1.05 1.85-1.64 2.91-2.41 4.27zm2.34-4.9c4.52-4 4.8-19.8-.42-24.84-5.35 7.27-5.16 18.41.39 24.8zM258 312.46c-3.08-3.64-6.42-7.56-9.39-11.06l-4.5 1.91c-.37-1.08-1.37-2.71-1-3.13.9-1 2.44-1.49 3.47-2.05l-4.14-19.05c-3.1 0-6.71.06-10.32 0-5-.1-6-1.47-5.93-6.41.07-3.33-.37-6.66-.6-10.31 11.12.31 22.29 2 33.51-.86v7.4c-.12 10.28 1.77 19.88 9.22 27.61a5.8 5.8 0 002.14 1.7c1.65.51 3.82 1.42 5 .76s1.52-3 1.55-4.67c.14-8 0-15.93 0-23.89v-3.91c-2.41 2.26-4.36 4.13-6.35 5.95a8 8 0 01-2.61 2c-.89.29-2-.19-3-.34.22-1 .12-2.24.72-2.85 2.92-3 6-5.87 9.1-8.63 1.74-1.54 1.64-2.63 0-4.22-2.75-2.72-5.38-5.59-7.86-8.56-.57-.68-.35-2-.5-3 1.08.18 2.5 0 3.16.61 2.43 2.27 4.6 4.81 7.27 7.69v-22c-1.84 1.21-3.5 2.9-5.48 3.46a22.65 22.65 0 01-8 .62c-1.79-.15-2.44.14-3.17 1.76-2.15 4.81-5.15 9-10.86 9.71a16 16 0 01-6.52-.82 52.25 52.25 0 01-7.65-3.42c-2.54-1.28-2.46-2.92 0-4.44 3.74-2.28 7.45-4.58 11.49-7.08-2.16-1-4-2.2-2.74-4.55.39-.75 2.37-1.58 2.58-1.36a27.57 27.57 0 012.89 4.2c7.46-4.73 15.6-10.1 24-15.08 2.95-1.76 4-3.7 3.74-7.07-.43-6.61-.36-13.25-.54-19.88-.06-2.24.49-3.12 3.07-2.44 6.2 1.63 12.46 2.29 18.34-1.26a50 50 0 004.08-3.07c2.61 8.79-8.38 18.41-19.72 17v10.87l29.27-18.52c-.73-1.7-1.58-3-1.71-4.38 0-.43 1.9-1.52 2.86-1.45s2 1.17 3.05 1.81l-.25.91a4.38 4.38 0 011.46-.71c.82-.06 2.09-.17 2.41.28a4.29 4.29 0 01.4 2.78c-.17 1.49-.88 3-.9 4.44-.07 5.75-1.16 11-6.43 14.36-3.52 2.28-7.29 2.1-11.42.88l-.64 2.79a21.76 21.76 0 014.4 2.61c.26.25-.66 2.66-1.51 3-2.39 1.06-3-1-3.64-2.84-1.13 1.4-2.13 2.8-3.32 4-3.21 3.33-7.14 4-11.51 3-1.41-.34-2.74-.52-2.73 1.58v30.25c4.36-4.1 8.14-7.56 11.83-11.12 4.85-4.68 9.63-9.42 14.42-14.16 1.15-1.13 2.36-2.38 3.89-.92s.44 2.91-.81 4.12c-7.35 7.08-14.68 14.2-22 21.26a7.85 7.85 0 01-1.9 1l1.3.19c.84 1.16 2.39 2.39 2.29 3.46s-2 2.44-3.11 2.42c-.88 0-1.73-1.93-2.72-3.17l-3 2.87 17.36 18.43c1.83-6.17 1.24-11.73.4-17.36h31.17c0 4 .3 8.79-.12 13.48-.23 2.6-3 3.18-5.23 3.35-2.74.2-5.5.05-8.37.05-.8 6.15-1.62 12.44-2.37 18.13 1.21.71 2.94 1.23 3.75 2.39.39.55-.86 3.25-1.54 3.33-1.3.14-2.73-.9-4.21-1.5-9.57 19.35-33.32 24.31-50.69 13.89a32.75 32.75 0 01-4.34 2.82c-.32.15-1.89-1.17-1.82-1.63a18.78 18.78 0 011.58-3.96zm24.65-45.8v30.14c0 2.45 1.58 3.37 3.65 2.93 5.7-1.22 8.89-5.43 11.4-10.26 2.06-3.93-.1-6.74-2.65-9.45-4.05-4.27-8.05-8.59-12.45-13.36zM265 233.72c5.89 0 11-4.75 11.29-9.62.05-.91-.2-2.27-.8-2.65s-2-.07-2.75.38a95.26 95.26 0 00-8.71 5.57c-1.11.83-2.59 2.9-2.25 3.55.74 1.39 2.53 2.22 3.22 2.77zm-8.41 2.4c0-2.66-1-3.31-3.39-2-3.08 1.77-6.11 3.64-9 5.66a3.47 3.47 0 00-1.51 2.64c.14.82 1.33 1.72 2.26 2.11 4.55 1.95 11.69-3.29 11.66-8.41zm30.21-16.21c5.27-.49 9.22-3.77 9.89-8.59.12-.87 0-2.3-.59-2.61a3.43 3.43 0 00-2.75.35 74.34 74.34 0 00-7.76 4.81c-1.08.8-2.59 2.66-2.3 3.31.56 1.2 2.29 1.82 3.53 2.73zM314.27 199c-.12-.28-.23-1.45-.82-1.79s-1.68.15-2.37.58c-2.6 1.59-5.18 3.23-7.64 5-.71.52-1.58 1.79-1.38 2.37a3.85 3.85 0 002.31 2c4.76 1.44 9.95-2.58 9.9-8.16zM292.12 329.35c-2.06 1.39-3.3 2.84-4.51 2.83-1 0-2-1.78-2.94-2.78 1.08-1 2.05-2.63 3.27-2.84.95-.17 2.21 1.44 4.18 2.79zM348.65 216.75c-2.07 1.41-3.28 2.87-4.47 2.85-.91 0-2.63-2-2.47-2.92a4.47 4.47 0 012.87-3.07c.95-.15 2.19 1.6 4.07 3.14zM220.49 273.69c-.6.38-1.85 1.72-2.55 1.48-1.34-.48-2.37-1.85-3.53-2.84 1-.89 2-2.31 3.14-2.53 1.88-.37 2.89 1.02 2.94 3.89zM221.84 287.33c-2 1.29-2.89 2.34-4 2.52A2.33 2.33 0 01215 287c.25-1.14 1.79-2.83 2.68-2.79 1.15.01 2.23 1.54 4.16 3.12zM363.15 216.26c-1.89 1.47-3 3-4 3s-2.87-1.63-2.91-2.6 1.52-2.93 2.51-3 2.38 1.34 4.4 2.6zM334.13 286.33c-1.76 1.37-2.86 2.89-4 2.91-1 0-2.8-1.72-2.76-2.6a4 4 0 012.62-2.95c1.06-.13 2.31 1.38 4.14 2.64zM222 301.09c-1.65 1.38-3 3.07-3.53 2.84a5.47 5.47 0 01-3-3.05c-.18-.61 1.68-2.57 2.68-2.62s2.15 1.49 3.85 2.83zM329.93 198.32c1.51 2 3 3.18 3 4.34 0 .94-1.8 2.55-2.87 2.61s-2.63-1.57-2.75-2.6 1.3-2.27 2.62-4.35zM232.08 340.94c.85 1.1 2.39 2.24 2.34 3.3s-1.66 2.13-2.58 3.19c-1-1.11-2.44-2.08-2.92-3.39-.25-.67 1.16-2 1.82-3z" transform="translate(-6.96 -6.17)"/>
  <path d="M291.64 230.12c-1.87 1.46-3 2.88-4.28 3.11-.68.12-2.52-1.9-2.43-2.82a4.21 4.21 0 012.65-3c.99-.16 2.24 1.41 4.06 2.71zM333.89 230c-1.78 1.44-2.88 3-3.91 3a3.82 3.82 0 01-2.64-2.76 3.92 3.92 0 012.58-2.9c.96-.18 2.17 1.35 3.97 2.66zM372.13 206.93c-1.29-2.07-2.73-3.36-2.54-4.34a4.16 4.16 0 012.94-2.7c.89-.06 2.71 1.8 2.66 2.73-.07 1.21-1.57 2.38-3.06 4.31zM354.71 258.77c1.76-1.62 2.71-3.07 4-3.41.67-.18 1.86 1.55 2.82 2.42a17.51 17.51 0 01-3.32 3.24c-.45.24-1.79-1.1-3.5-2.25zM343.09 192.13c-.7-1.17-2-2.35-1.93-3.5 0-.94 1.75-2.7 2.44-2.57 1.21.22 3 1.6 3.07 2.52 0 1.19-1.49 2.4-2.34 3.61zM333.91 188.26c-1.76 1.61-2.79 3.29-3.94 3.37s-2.14-1.65-3.22-2.58c1-1.06 1.91-2.56 3.16-3 .75-.28 2.09 1.09 4 2.21zM246.27 185.39c.68 1 2.1 2.18 1.87 2.85a4.57 4.57 0 01-2.8 2.72c-.73.17-2.52-1.3-2.69-2.24-.33-1.84.99-2.92 3.62-3.33zM217.66 347.6c-.79-1.14-2.1-2.24-2.2-3.44-.06-.82 1.9-2.67 2.39-2.49a5.82 5.82 0 013.16 2.85c.25.59-1.29 2-2 3zM264.06 329.29c-1.88 1.33-3 2.68-4.35 2.86-.73.1-2.54-1.89-2.41-2.7.19-1.14 1.67-2.78 2.71-2.87s2.26 1.42 4.05 2.71zM222.27 330c-1.89 1.13-3.19 2.48-4 2.23-1.1-.36-2.55-1.95-2.5-2.93s1.87-2.84 2.66-2.72c1.2.21 2.14 1.81 3.84 3.42zM232.53 213.46c.64 1.07 1.89 2.21 1.77 3.18s-1.47 2.09-2.28 3.12c-1-1-2.66-1.87-2.8-3s1.34-2.24 2.11-3.38zM220.77 202.13c-1.52 1.21-2.61 2.69-3.36 2.54-1.12-.23-2-1.62-3-2.52l3-3.21zM361.85 244.81c-1.12.73-2.32 2.13-3.35 2s-2-1.68-3-2.61c1-1 2-2.5 3.11-2.67 1-.15 2.2 1.28 3.31 2-.03.47-.05.86-.07 1.28zM362.12 188.62c-1.85 1.45-3 3-4 3s-2.44-1.78-2.59-2.91c-.1-.82 1.57-2.58 2.51-2.62 1.06-.09 2.22 1.29 4.08 2.53zM263.34 188.38c-1.75 1.42-2.76 2.86-3.86 2.93-.9.06-2.85-1.81-2.69-2.31a5.79 5.79 0 012.74-3.24c.57-.26 1.99 1.31 3.81 2.62zM259.44 198.6c1.38 1.73 3.12 3 2.91 3.82-.34 1.24-2 2.12-3.08 3.16-.88-1.09-2.3-2.1-2.46-3.3-.13-.88 1.36-2 2.63-3.68zM362.31 203.31c-1.28.74-2.51 1.91-3.85 2-.71.07-2.43-1.93-2.24-2.5.41-1.19 1.69-2.71 2.79-2.86s2.22 1.35 3.34 2.12c-.01.44-.03.84-.04 1.24zM344.15 206.72c-1.26-2-2.64-3.17-2.48-4.11a4.16 4.16 0 012.68-2.78c.77-.15 2.77 1.64 2.68 2.36-.18 1.32-1.49 2.5-2.88 4.53zM233.49 254.73c.53 1 1.69 2.14 1.45 2.8-.44 1.19-1.73 2.07-2.66 3.08-.91-.89-2.63-1.9-2.53-2.66.17-1.21 1.54-2.27 2.4-3.39zM249.57 329.26c-1.6 1.44-2.77 3.14-3.44 3a4.39 4.39 0 01-2.75-2.82c-.15-.84 1.44-2.82 2.22-2.81 1.13 0 2.23 1.37 3.97 2.63zM348.36 258.05c-1.85 1.35-3 2.82-4.09 2.77-.88 0-2.26-1.88-2.33-3 0-.86 1.63-2.58 2.47-2.55 1.12.07 2.19 1.46 3.95 2.78zM319.83 216.4c-2 1.23-3.21 2.51-4.3 2.43-.91-.06-2.57-1.94-2.39-2.58a4.36 4.36 0 012.84-2.67c.82-.15 1.96 1.36 3.85 2.82zM217.34 254.46c1.27 1.74 2.73 2.91 2.54 3.69-.27 1.16-1.72 2-2.66 3-.94-1-2.37-2-2.64-3.15-.17-.71 1.42-1.86 2.76-3.54zM348.49 272.43c-2.1 1.14-3.36 2.36-4.48 2.25-.84-.08-2.19-2-2.07-2.9s1.78-2.61 2.61-2.52c1.13.13 2.12 1.61 3.94 3.17zM260.13 220.35c-1.34-1.63-2.88-2.68-2.82-3.65.06-1.13 1.5-2.19 2.34-3.29 1 1 2.54 1.84 2.78 3 .2.9-1.19 2.16-2.3 3.94zM249.34 314.68c-1.5 1.4-2.58 3.11-3.38 3-1.15-.17-2.1-1.68-3.14-2.62.89-.95 1.69-2.52 2.7-2.66s2.14 1.21 3.82 2.28zM221.85 315l-3.68 2.9c-.84-1.11-2.18-2.15-2.35-3.36-.11-.7 1.68-2.38 2.56-2.34s1.96 1.48 3.47 2.8zM276.47 202c-1.56 1.51-2.46 3-3.66 3.29-.63.17-2.58-1.64-2.54-2.49a4.13 4.13 0 012.38-3.06c.8-.24 2.12 1.2 3.82 2.26zM329.93 248.27c-1-1.68-2.38-2.94-2.14-3.69a4.5 4.5 0 012.86-2.71 2.22 2.22 0 012.61 2.83c-.35 1.19-1.84 2.04-3.33 3.57zM249.74 343.35c-1.66 1.45-2.77 3.13-3.6 3-1.2-.18-2.2-1.68-3.28-2.62.89-1 1.72-2.67 2.69-2.75s2.34 1.24 4.19 2.37zM376.11 229.91c-1.88 1.51-2.94 3-4 3-.88 0-2.46-1.65-2.54-2.67-.07-.83 1.51-2.35 2.55-2.55s2.06 1.1 3.99 2.22zM264.16 258.15c-1.87 1.14-3.07 2.47-4 2.29-1.12-.21-2-1.69-3-2.62.94-.9 1.92-2.56 2.79-2.5 1.21.07 2.31 1.46 4.21 2.83zM273.13 333.46c-1.08-1.78-2.33-2.92-2.21-3.9s1.59-1.81 2.47-2.7c1 1 2.52 1.87 2.71 3 .13.81-1.52 1.93-2.97 3.6zM305.54 229.52c-1.81 1.55-2.8 3-3.92 3.14-.84.08-2.51-1.55-2.59-2.52a3.6 3.6 0 012.18-2.86c1.07-.14 2.32 1.12 4.33 2.24zM315.61 261.57c-1.15-1.43-2.63-2.52-2.47-3.25.26-1.19 1.61-3 2.47-3 1.11 0 2.2 1.58 3.29 2.48zM334.7 216.35c-1.94 1.38-3.05 2.75-4.25 2.83-.84 0-1.79-1.65-2.69-2.57 1-.93 1.89-2.4 3-2.63.91-.18 2.11 1.19 3.94 2.37zM347.93 230.12c-1.88 1.19-3 2.39-4.3 2.54-.67.08-2.38-2-2.17-2.56a4.64 4.64 0 012.85-2.8c.84-.15 1.99 1.48 3.62 2.82zM334.19 300.44l-4.42 3.11c-.71-1-2.08-2.12-1.94-3a3.85 3.85 0 012.51-2.72c.96-.1 2.09 1.33 3.85 2.61zM235.57 202.07c-2 1.48-3 2.63-4.36 3.07-.42.15-2.26-1.86-2.08-2.41a5.37 5.37 0 012.71-2.93c.61-.25 1.87 1.09 3.73 2.27zM221.56 244.42c-1.72 1.47-2.69 2.91-3.83 3.05-.71.1-2.3-1.75-2.33-2.77a3.61 3.61 0 012.35-2.7c.89-.15 2.05 1.22 3.81 2.42zM249.52 217.1c-1.82 1.16-3 2.4-4.19 2.47-.65 0-2-2-1.94-3a3.56 3.56 0 012.66-2.38c1.01.03 1.95 1.53 3.47 2.91zM376.47 188.63c-2.08 1.32-3.28 2.52-4.63 2.74-.68.11-2.52-2-2.33-2.35.57-1.22 1.72-2.64 2.9-2.92.86-.21 2.13 1.25 4.06 2.53zM273.18 284.78c.78 1 2.33 2.13 2.17 3-.24 1.23-1.66 2.23-2.57 3.33-.83-.85-2.29-1.67-2.33-2.56-.05-1.19 1-2.42 1.57-3.64zM362.78 229.93c-1.94 1.5-3 3-4.13 3-.86 0-2.44-1.71-2.48-2.7s1.59-2.29 2.66-2.49c.89-.18 2.06 1.06 3.95 2.19zM319.61 243.88c-1.84 1.21-3 2.6-4 2.46s-1.78-1.76-2.66-2.74c1-.87 1.9-2.34 2.94-2.42s2.02 1.37 3.72 2.7zM231.46 325.35c1.42 1.63 3 2.62 2.94 3.58s-1.47 2.11-2.3 3.16c-1-.92-2.61-1.7-2.91-2.83-.19-.84 1.17-2.13 2.27-3.91zM231.75 283.23c1.21 1.75 2.56 2.89 2.37 3.6-.33 1.18-1.66 2.07-2.57 3.08-.85-1-2.29-1.87-2.39-2.91s1.3-2 2.59-3.77zM232.09 311.18c1.32 1.71 2.9 2.95 2.69 3.69-.32 1.17-1.84 2-2.86 3-.81-1-2.21-1.93-2.27-2.95s1.26-2.05 2.44-3.74zM232.2 297.32c1.22 1.53 2.86 2.77 2.66 3.51a4.22 4.22 0 01-2.94 2.62c-.82.09-2.53-1.65-2.57-2.63s1.53-1.98 2.85-3.5zM217.08 184.76c1.29 1.58 2.8 2.76 2.6 3.29-.45 1.2-1.76 2.08-2.71 3.1-.87-.91-2.34-1.77-2.43-2.75s1.3-1.97 2.54-3.64zM245.83 198.48c1.27 1.66 2.67 2.76 2.49 3.45-.32 1.25-1.58 2.25-2.46 3.35-.89-1-2.35-1.87-2.5-2.94s1.25-2.06 2.47-3.86zM376.19 216.49c-1.55 1.41-2.6 2.36-3.64 3.32-.87-1-2.39-1.95-2.43-3a3.65 3.65 0 012.34-2.78c.96-.03 2.11 1.34 3.73 2.46zM273.28 241.57c1.18 1.66 2.49 2.7 2.43 3.65s-1.44 2-2.23 2.93c-1-1.1-2.32-2.08-2.94-3.39-.19-.41 1.39-1.67 2.74-3.19zM221.87 229.88c-1.75 1.43-2.75 2.83-3.9 3-.77.1-1.77-1.59-2.66-2.48.94-.94 1.76-2.29 2.89-2.65.71-.25 1.9 1.03 3.67 2.13zM235.71 230.53c-1.81 1.25-2.89 2.59-3.85 2.5s-2.68-1.58-2.64-2.39c.06-1 1.49-2.82 2.37-2.84 1.09-.04 2.24 1.39 4.12 2.73zM287.24 240.33c1.38 1.64 2.93 2.78 2.74 3.4a5.85 5.85 0 01-2.72 3c-.35.19-2.43-1.47-2.39-2.22.05-1.19 1.23-2.32 2.37-4.18zM348.24 244.67c-1.94 1.2-3.16 2.54-4.19 2.41s-2.2-1.76-2.35-2.87c-.1-.7 1.69-2.41 2.42-2.3 1.23.19 2.3 1.46 4.12 2.76zM319.81 314.45c-1.73 1.16-2.85 2.49-3.86 2.42s-2.56-1.88-2.39-2.54a4.16 4.16 0 012.75-2.67c.84-.13 1.93 1.46 3.5 2.79zM301.69 261.64c-1.19-1.89-2.38-3-2.43-4.12 0-.77 1.69-2.38 2.36-2.25 1 .21 2.51 1.53 2.57 2.46s-1.28 2.12-2.5 3.91zM330.4 261.31c-1.09-1.56-2.45-2.65-2.3-3.48.18-1 1.65-2.59 2.48-2.54 1 .07 2.69 1.54 2.71 2.44s-1.52 1.99-2.89 3.58zM264.21 245c-1.77 1.44-2.74 2.7-3.95 3-.56.14-2.34-1.72-2.22-2.45a4.14 4.14 0 012.5-2.68c.74-.26 1.92 1 3.67 2.13zM320.32 229.86l-3.86 3.22c-.74-.93-2.27-2.16-2-2.74a5.21 5.21 0 012.86-2.63c.49-.21 1.61 1.12 3 2.15zM235.34 188.47c-1.83 1.23-3 2.6-3.93 2.48s-1.74-1.72-2.59-2.67c1-.81 1.9-2.11 3-2.25.82-.11 1.84 1.22 3.52 2.44zM217.76 212.19c1.31 1.86 2.73 3.06 2.52 3.75-.38 1.19-1.77 2.06-2.73 3.06-.76-.77-2.2-1.62-2.12-2.3.15-1.26 1.18-2.42 2.33-4.51zM276.33 188l-3.55 3.11c-.82-1-2.12-1.95-2.28-3-.1-.7 1.47-2.23 2.38-2.3s1.94 1.13 3.45 2.19zM347.61 286.77c-1.82 1.16-2.91 2.39-4 2.4-.86 0-2.58-1.75-2.42-2.28.33-1.14 1.55-2.64 2.56-2.76s2.07 1.34 3.86 2.64zM250.24 257.63l-3.71 3.51c-.85-1-2.18-1.9-2.38-3-.13-.7 1.36-2.23 2.31-2.4s2.02.95 3.78 1.89zM276.56 274.42l-3.56 3.32c-.84-1-2.17-1.9-2.34-3-.11-.7 1.42-2.17 2.39-2.35s1.95 1.05 3.51 2.03zM184.62 39c-.56-2.82.3-4.63 2.48-4.84 1-.1 2.81 1.33 3.11 2.4.74 2.6-1.27 3.27-3.41 3.22 0 .41-.08.69 0 .78 5.15 4.92 5.22 10.28 2 16.37a97.47 97.47 0 00-6.51 14.8c-2.09 6.2-2.42 12.59 1 19a7.64 7.64 0 01-7.59-.56 25.11 25.11 0 01-9.26-10c-.55-1-1.14-2-2.09-3.7-1.3 3.82-.1 6.5.74 9.27 1.2 4 2.74 8 3.07 12 .5 6.23-2.33 9.82-8.19 12.16-5.5 2.19-6 3.41-2.75 8.5 1.63 2.58 3.61 4.94 5.37 7.45 2.11 3 2.18 5.27-.15 8-1.83 2.17-4.06 4-6 6-2.34 2.41-4.73 4.78-6.89 7.35-2.65 3.16-3.18 6.93-2.7 11 .54 4.43-.17 5.38-4.47 5.45-11 .17-22 .18-33.08.24-7.68 0-9.33-1.59-10.13-9.42a3.27 3.27 0 00-2-2.31c-5.86-.52-11.82-1.52-17.6-.9s-11.55 2.89-17.29 4.5c-2.16.6-4 .63-5.23-1.65-2.26-4.19-4.39-8.45-2.65-13.34.67-1.87 2-3.5 2.53-5.24.07-1.44-.17-3 .35-4.28a3 3 0 012.84-1c1 .5 1.45 1.9 2.17 3 7 0 14.42.27 21.79-.1 4.13-.21 5-2.06 4.47-6.27-.37-2.82-1-5.68-.79-8.46a14.92 14.92 0 012.24-6.76c2.46-3.68 2.67-3.54-.68-5.73-1.14 1.06-2.06 2.34-3.3 2.84-.47.19-2.24-1.32-2.38-2.22-.17-1.06.78-2.31 1.46-4a45.49 45.49 0 00-4.08-2.4c-13.25-6.25-27.14-9.36-41.84-8.33a20.47 20.47 0 00-5.3 1.31c-2.83 1-4.33.55-5.77-2.14C24.4 84 28.3 74.33 36 71.65a37.67 37.67 0 0116.34-1.47c3.57.35 4.4-.45 3.56-3.9a88.82 88.82 0 00-12.22-28.52c-1.89-2.84-3.91-6.08-8.21-6.08-.58 0-1.42-1.09-1.71-1.84a6.77 6.77 0 014.88-9.51 28.5 28.5 0 0115.14.15 16.27 16.27 0 0110.77 9.72C67.17 36.51 69.39 43 72 49.28a55 55 0 004.43 8c.71 1.12 2 1.89 3.17 3a11.55 11.55 0 00.88-1.75c1-3.58 1.94-4.18 5.68-4.06a27.47 27.47 0 006-.42c.64-.13 1-1.39 1.57-2.13l-2.29-1h-.3C87 52 82.85 52.44 80 48.5a16.25 16.25 0 01-2.32-14.56c.75-2.58 2.18-4.09 5.67-3.47 6 1.08 11.91-.16 17.64-2.43 4.1-1.62 8.4-2.75 12.13-3.94a19 19 0 011.42-4.21c.24-.41 2.74-.1 2.77.08a38.76 38.76 0 01.13 5.29c4.19 2.37 5 2.17 9.37-1.07a42.35 42.35 0 017.43-4.05c2.4-1.08 4.36-.16 5 2.35 1.09 4.07 1.88 8.23 2.79 12.32 1.11-.74 3.16-2.64 4.61.42.44.94.05 3.19-.65 3.58-2.06 1.13-4 .48-4.75-2.27-2.74 6-2.49 6-1.89 12a39.66 39.66 0 01-.32 12.07 13.18 13.18 0 01-4.64 7.22 11.19 11.19 0 00-3.21 14.27 41.59 41.59 0 0013.27 15.38c.92.67 3 1.18 3.45.73a5.9 5.9 0 001.34-4c-.12-1.55-1.07-3-1.74-4.52a5.9 5.9 0 00-1.21-1.75c-9.44-9.31-8.29-19.7-3-30.37s13.23-18.56 24.91-22c5.8-1.78 11.16-.44 16.42 3.43zm-9.29 43.67c.25-3 .32-5.18.64-7.35a59.21 59.21 0 019.24-23.75c2.08-3.19 1.71-5.69-1.28-8-4.65-3.61-10-4.85-15.57-2.89-11.45 4.06-17.68 13.18-22.27 23.83-3 7-1.93 13.08 3.21 18.58.83.9 1.48 2 2.26 2.9 2.89 3.46 3.57 7.53 3 11.82-.87 6.62-5.6 8.83-11.18 5.22a55.73 55.73 0 01-16.78-17.16c-4.17-6.53-3.63-12.72 1.55-18.48a37.5 37.5 0 012.85-2.75c2.4-2.17 3.91-4.86 3.53-8.1a50.22 50.22 0 00-2.12-10.34c-.81-2.4-1-4.27.72-6.21 3.46-4 3.68-8.65 2.69-13.54-.41-2-1.71-2.48-3.07-1.27a37.51 37.51 0 00-5.92 6.36c-1.71 2.45-2.64 3.11-4.79 1.29-5.31-4.52-10.89-4.5-16.78-1.48a39.27 39.27 0 01-19.74 4.53c-.78 0-2.29.58-2.28.85.09 2.58-.12 5.41.91 7.62.6 1.3 3.26 1.84 5.09 2.29 1.22.31 2.63-.24 4-.2a6.16 6.16 0 016 5.75 6.06 6.06 0 01-4.73 6.59 43.6 43.6 0 01-6.67.7c-1.37.08-3-.11-2.78 1.79.13 1.09 1.17 2.18 2 3A15.83 15.83 0 0090 66.15c-2.07 3.72-4.88 3-7.48 2.06-7.52-2.86-12.36-8.58-15.38-15.78-2.48-5.92-4.32-12.1-6.75-18-3.52-8.62-10.69-12.27-19.46-10.31-1.81.41-3.35 1-3.11 2.4 3 1.95 6 3 7.74 5.15a57.39 57.39 0 018.5 12.94c3.38 7.73 6 15.82 8.59 23.86a5.91 5.91 0 005 4.52c5 1 9.86 2.61 14.86 3.57a103.19 103.19 0 0013 1.57c3.53.21 6.56-1 8.51-4.37a3.49 3.49 0 013-1c.53.1 1.31 2 1 2.72-1 2-2 4.32-3.69 5.74-4.44 3.77-9.9 3.61-15.16 2.42-8.94-2-17.78-4.49-26.67-6.74a59 59 0 00-23.06-1.61c-5.57.8-9 5.92-7.05 10.57A3.21 3.21 0 0035 87.38a65.86 65.86 0 0124 0c14.07 2.28 26.54 7.83 37 17.67 5.69 5.36 12 9.38 20 10.51a37.4 37.4 0 017.6 2.25c9.47 3.53 15.15 12.48 13.68 22.41-1.1 7.46-6.54 13.92-16.36 11.61a40.56 40.56 0 00-5.33-1.3 31.92 31.92 0 00-8.39-.14c-2.61.46-3.55 3.2-2.9 6.18.54 2.5 1.43 4.26 4.51 3a7.33 7.33 0 012.44-.06c8.37 0 16.75-.08 25.13 0 2.95 0 4.32-1.11 4.47-4 .29-5.77 2.85-10.6 6.73-14.71 2.65-2.81 5.55-5.39 8.37-8s2.55-3.61.35-6.64c-2.42-3.34-4.95-6.8-6.4-10.6-1.93-5.08 0-8.47 5.31-9.14 6.78-.86 8.9-6.11 7.15-12.12-1.08-3.72-2.67-7.36-3.21-11.16-.48-3.43-.91-7.56.55-10.41A30.88 30.88 0 00162.83 59c0-2.17-.63-4.35-.9-6.53-.15-1.24-.69-3-.09-3.65 1.47-1.53 3-.37 4.13 1 2.35 2.84 2.66 6.3 2.63 9.78 0 3.65-.59 7.32-.28 10.93.4 4.62 2.54 8.63 7.01 12.15zm-64.44 37.17c-4.48-2.09-8.8-4.09-13.09-6.12-2.28-1.08-4.3-.3-4.42 2.27-.13 2.89.54 5.82.89 8.73.23 1.88.89 3.8.71 5.63-.79 8.16-8.22 9.86-14 9.31-3.43-.33-6.81-1.31-10.24-1.51a28.91 28.91 0 00-8.71.68c-3.33.86-4.37 4.08-3.08 7.76.92 2.64 2 2.91 5.93 1.8a62.68 62.68 0 0134.62-.31 3.19 3.19 0 002.17-.24c1.94-1.06 3.78-2.3 5.69-3.49-2.61-11.35-2.9-13.69 3.53-24.5zm11.82 27.6c5.81-.38 9-3.57 9-9.28a17.49 17.49 0 00-10.1-15.16c-3.63-1.52-6.54-.28-8.13 3.48-2.49 5.85-1.47 11.77-.25 17.67a2 2 0 001.28 1.13c2.72.72 5.49 1.44 8.2 2.17zM157.21 156.44c1.26 1.92 2.78 3.25 2.56 4.16-.28 1.18-2 2-3.05 3-.8-1-2.31-2-2.25-2.88.09-1.21 1.4-2.32 2.74-4.28z" transform="translate(-6.96 -6.17)"/>
  <path d="M72.73 109.61c-1.12-1.93-2.44-3.18-2.22-4.08.26-1.1 1.79-1.91 2.77-2.84.89 1 2.54 2 2.47 2.86-.09 1.16-1.54 2.21-3.02 4.06zM186 110c-1.34-1.94-2.82-3.16-2.7-4.17s1.83-1.92 2.83-2.87c.91 1.06 2.33 2 2.53 3.21.12.83-1.35 1.98-2.66 3.83zM175.35 132.73c-1.68 1.45-2.78 3.13-3.8 3.08s-2.05-1.81-3.07-2.81c1-1 1.89-2.52 3.05-2.76.88-.14 2.1 1.32 3.82 2.49zM34.73 148.16c-2 1.22-3.15 2.51-4 2.33s-2.64-1.82-2.51-2.56a4 4 0 012.65-2.79c.9-.14 2.01 1.5 3.86 3.02zM76.72 23.11c-1.73 1.31-2.92 2.77-3.55 2.55-1.29-.44-2.28-1.77-3.39-2.73.89-.92 1.84-2.65 2.64-2.58 1.24.11 2.38 1.44 4.3 2.76zM187 165.07c-1.38-2-3-3.4-2.75-4.17.4-1.18 2-2.21 3.32-2.68.4-.14 2.21 1.81 2.16 2.74-.1 1.14-1.43 2.21-2.73 4.11zM190 119.46c-1.6 1.56-2.52 2.94-3.78 3.44-.47.19-2.3-1.53-2.55-2.61a2.43 2.43 0 012.72-3.08c1.01.07 1.95 1.18 3.61 2.25zM172 142.69c1.27 1.51 2.86 2.78 2.65 3.26-.58 1.32-1.92 2.3-3 3.42-.93-1-2.63-1.94-2.59-2.85.13-1.12 1.64-2.18 2.94-3.83zM186.23 150.32c-1.45-1.76-3.13-3.28-2.91-3.65a9.74 9.74 0 013.49-3.15c.21-.13 2.26 1.74 2.14 2.45-.22 1.3-1.44 2.43-2.72 4.35zM175.84 161.94c-1.14.67-2.41 2-3.39 1.82s-2-1.76-3-2.74c1.05-.9 2-2.42 3.17-2.53s2.15 1.36 3.24 2.14c0 .44-.01.87-.02 1.31zM34.39 64.48c-1.73 1.4-2.93 3-3.57 2.76a4.58 4.58 0 01-2.75-2.81c-.16-.77 1.46-2.67 2.29-2.68 1.07-.01 2.15 1.37 4.03 2.73zM161.18 36c-1.8 1.47-2.8 2.92-3.93 3-.91.09-2-1.44-3-2.25 1-1 1.93-2.43 3.18-3 .63-.19 1.93 1.14 3.75 2.25zM160.81 146.1c-1.64 1.43-2.7 3.06-3.77 3.07-.91 0-2.48-1.79-2.57-2.89-.07-.89 1.53-2.56 2.55-2.7s2.1 1.32 3.79 2.52zM172.23 26.41c-1.24-1.74-2.71-2.91-2.56-3.83.18-1.13 1.7-2.06 2.64-3.07.88 1 2.32 2 2.47 3.18.11.92-1.33 2.05-2.55 3.72zM190.42 22.45c-1.77 1.43-2.76 2.84-3.81 2.88-.88 0-2.65-1.67-2.53-2.36a4.6 4.6 0 012.48-3.06c.63-.25 1.97 1.23 3.86 2.54zM48.94 133.51c-1.63 1.4-2.49 2.75-3.53 2.91a2.44 2.44 0 01-2.8-3 3.92 3.92 0 012.71-2.46c.87-.15 1.93 1.26 3.62 2.55zM30.62 109.81c-1.29-1.87-2.41-2.84-2.67-4-.39-1.74.84-3.27 2.52-2.79 1.19.33 2.29 2 2.78 3.26.21.56-1.25 1.72-2.63 3.53zM44.07 67.54c-.69-1.18-1.94-2.38-1.9-3.53 0-.94 1.68-2.6 2.49-2.53A3.7 3.7 0 0147.29 64c.08 1.12-1.22 2.33-1.92 3.51zM34.42 162c-1.71 1.27-3.15 2.86-3.65 2.6a5 5 0 01-2.4-3.19c-.13-.71 1.69-2.55 2.24-2.4 1.19.32 2.14 1.58 3.81 2.99zM34.67 36.85c-2 1.1-3.25 2.3-4.2 2.11A3.81 3.81 0 0128 36.3a2.19 2.19 0 012.81-2.56c1.19.34 2.09 1.61 3.86 3.11zM62.6 161.62l-3.46 3.18c-1-1.12-2.25-2.13-2.82-3.44-.17-.4 1.57-2.35 2.34-2.29 1.13.08 2.18 1.33 3.94 2.55zM171.32 123.48c-1.19-1.87-2.45-3-2.25-3.75.32-1.18 1.62-2.1 2.5-3.13.87.9 2.45 1.82 2.43 2.71 0 1.13-1.34 2.22-2.68 4.17zM185.81 137.15c-1.28-1.86-2.77-3.13-2.55-4 .28-1.06 1.82-2.13 3-2.44.56-.15 2.34 1.61 2.23 2.28-.19 1.27-1.39 2.32-2.68 4.16zM147.09 50.26c-1.57 1.28-2.9 2.94-3.47 2.71a4.51 4.51 0 01-2.49-3c-.09-.74 1.64-2.32 2.64-2.4s1.86 1.43 3.32 2.69zM161.88 22.1c-1.87 1.45-2.89 2.81-4.07 3-.78.1-2.58-1.56-2.52-2.33a3.81 3.81 0 012.38-2.77c.95-.23 2.2 1 4.21 2.1zM30.16 26.72c-1.35-1.93-2.78-3.09-2.61-3.95.21-1.12 1.69-2 2.62-3 .83 1 2.19 1.88 2.32 2.95s-1.13 2.07-2.33 4zM69.73 119.46c1.58-1.32 2.94-2.87 3.28-2.67a5.43 5.43 0 012.62 3c.13.76-1.62 2.67-2.33 2.58-1.09-.11-2.01-1.53-3.57-2.91zM83.23 22.55c1.45-1.25 2.24-2.52 3.19-2.65 2.06-.29 3 1.4 2.72 3.11-.15.92-1.66 2.35-2.41 2.27-1.05-.12-1.96-1.45-3.5-2.73zM48.71 161.86c-1.61 1.35-2.94 3-3.44 2.79a5.27 5.27 0 01-2.61-3c-.17-.54 1.51-2.31 2.34-2.29 1-.03 2 1.26 3.71 2.5zM185.55 95c-.67-1-2.06-2.32-1.83-3.12.33-1.13 1.85-1.92 2.87-2.85.74.88 2.11 1.79 2.07 2.62-.06 1.17-1.18 2.28-1.85 3.41zM48.36 50.38c-1.74 1.13-3 2.52-3.67 2.26-1.13-.47-1.84-1.93-2.73-3 1-.76 2-2.18 2.86-2.12s1.94 1.48 3.54 2.86zM182.42 77.36c1.76-1.17 2.89-2.5 3.8-2.36s2.42 1.91 2.25 2.64a4.31 4.31 0 01-2.76 2.65c-.66.16-1.71-1.49-3.29-2.93zM48.75 119.89c-1.68 1.25-3 2.72-3.48 2.49a5.06 5.06 0 01-2.59-3c-.16-.67 1.66-2.6 2.23-2.47 1.19.3 2.15 1.58 3.84 2.98zM34.22 133.38c-1.73 1.25-2.8 2.62-3.66 2.5s-1.8-1.59-2.68-2.47c.91-.89 1.7-2.24 2.76-2.49.74-.17 1.83 1.19 3.58 2.46zM34.21 50.38c-1.91 1.06-3 2.2-4 2.07-.82-.1-2.22-2-2-2.52a4.44 4.44 0 012.8-2.4c.61-.14 1.61 1.37 3.2 2.85zM48.78 147.73c-1.8 1.28-3 2.73-3.76 2.53a3.83 3.83 0 01-2.33-2.83c0-.94 1.56-2.66 2.39-2.63 1.03.04 2.02 1.5 3.7 2.93zM147.51 22.52c-1.63 1.13-2.75 2.5-3.67 2.38a3.52 3.52 0 01-2.24-2.71 3.65 3.65 0 012.65-2.35c.75-.1 1.75 1.38 3.26 2.68zM44.88 109.12c-1.31-1.76-2.6-2.74-2.66-3.8-.06-.88 1.33-1.85 2.08-2.77 1 1 2.36 1.8 2.82 3 .25.61-1.12 1.85-2.24 3.57zM104.64 22.16c-1.66 1.38-2.62 2.57-3.84 3-.48.17-2.35-1.6-2.21-2.08a5.67 5.67 0 012.4-3.21c.5-.27 1.92 1.13 3.65 2.29zM69.76 161.52c1.48-1.28 2.49-2.74 3.15-2.6 1 .23 2.54 1.54 2.54 2.39s-1.39 2-2.18 3zM62.59 105.23c-1.59 1.2-2.59 2.53-3.59 2.59-.86.05-1.82-1.41-2.73-2.2 1-1 1.74-2.44 2.91-2.89.57-.23 1.82 1.27 3.41 2.5zM145.82 90.49c-1.38 1.14-2.68 2.6-3 2.42a6.83 6.83 0 01-2.78-3c-.17-.43 1.69-2.4 2.37-2.28 1.09.17 1.96 1.53 3.41 2.86zM87.41 157.61c1.13 1.76 2.33 2.82 2.2 3.66-.17 1.09-1.41 2-2.19 3-.88-1-2.2-2-2.49-3.13-.18-.71 1.22-1.82 2.48-3.53zM175.73 105.43c-1.94 1.24-3.08 2.55-4 2.41s-1.77-1.66-2.64-2.58c.88-.82 1.74-2.25 2.66-2.29s2.08 1.2 3.98 2.46zM27.5 118.85c1.05-.59 2.17-1.72 3.14-1.6s2.29 1.71 2.17 2.41a3.64 3.64 0 01-2.46 2.46c-.91.07-1.94-1.29-2.92-2 .02-.44.05-.86.07-1.27zM171.55 88.49c1.22 1.66 2.6 2.74 2.47 3.56-.18 1.1-1.54 2-2.4 3-.87-.84-2.44-1.67-2.45-2.52-.01-1.12 1.23-2.23 2.38-4.04zM62.5 119.74c-1.65 1.13-3 2.54-3.48 2.29a4.45 4.45 0 01-2.17-3c-.1-.69 1.62-2.38 2.1-2.24 1.12.39 1.98 1.57 3.55 2.95zM72.67 40c-1.28-1.66-2.64-2.7-2.48-3.38.23-1 1.53-1.82 2.38-2.71.83.85 2.12 1.62 2.33 2.61.16.71-1.07 1.75-2.23 3.48zM344.13 366.67c-1.83 3-3.55 6.1-5.57 9-.77 1.08-2.27 1.65-3.44 2.45-.71-1.42-2-2.81-2-4.26-.19-3.52.25-7.06.25-10.59a7 7 0 00-.85-2.5c-.74 4-1.1 8.25-2.42 12.15-.64 1.88-3.25 4.52-4.72 4.37-3.06-.31-5.8-1-9 .12-2 .73-4.09-2.08-3.92-5.08.25-4.57.9-9.11 1.15-13.68.11-2.14-.41-4.32-.4-6.48 0-.88.42-2.24 1.05-2.53a5.58 5.58 0 013.72-.32c.57.18 1 1.88.9 2.84-.58 6-1.4 11.9-2 17.87-.1 1.09.64 2.26 1 3.39l1.19-.28c0-2.38-.15-4.77.05-7.14a16.67 16.67 0 011.22-5c2.33-5.45 6-6.28 10.08-2.86 1.78-.44 3.54-1.48 4.56-1a5.47 5.47 0 012.29 3.85 74.18 74.18 0 01.1 8.7l.78.21c1-2.8 2-5.58 2.86-8.42.51-1.69 1-3.39 3.17-2.68 2 .62 2.11 2.25 1.41 4-.52 1.31-1 2.62-1.57 3.93zm-16-1.06l-.28-.05a7 7 0 00-.05-2.42 13.68 13.68 0 00-1.78-2.56c-.72.63-2 1.18-2.08 1.9a61.46 61.46 0 00-.62 8.58c0 .55 1 1.6 1.51 1.56a2.73 2.73 0 002-1.41 45.52 45.52 0 001.33-5.6zM130.27 375c.25-3.7.18-7.46.86-11.08.48-2.53 2.13-4.6 5.31-4.59a5.23 5.23 0 015.48 4.41 51.25 51.25 0 011.1 11 5.84 5.84 0 01-4.68 5.76c-3.11.79-5-.88-6.42-3.44-.19-.35-.42-.69-.71-1.17-.4.67-.61 1.43-1.11 1.77-.95.65-2.32 1.68-3 1.39a4.17 4.17 0 01-2-2.93c-.47-3.41-.41-6.9-.89-10.32-.17-1.18-1.31-2.22-2-3.32-.57 1.24-1.65 2.5-1.61 3.73.07 3.13.69 6.25 1 9.38.15 1.5 0 3-2 3.13s-2.2-1.29-2.41-2.82c-.71-5.11-1.52-10.21-2.22-15.33-.08-.62.11-1.72.46-1.86.85-.33 2.17-.65 2.78-.23 1.33.93 2.21.6 3.52 0 2.88-1.3 6.36 1.39 6.75 5.1.28 2.63.34 5.28.62 7.91a30.5 30.5 0 00.82 3.62c.08 0 .23-.04.35-.11zm9.34-4.39c-.44-1.84-.81-3.81-1.42-5.71-.17-.54-1.07-1.28-1.51-1.21-.66.11-1.73.87-1.73 1.35a55.59 55.59 0 00.5 10.09c.32 1.76 2.16 1.87 3 .07a22.2 22.2 0 001.16-4.58zM203 369.61c-2.32 2.42-3.13 9.47-1.13 12.09 1 1.36 2.23 2.06 3.5-.1.58-1 1.88-1.52 3.25-2.57.26-2.33.21-5.54 1-8.52a7.69 7.69 0 0110.23-5.4c.82.28 1.54 2 1.61 3.16.23 3.74.07 7.51.22 11.26 0 1.17.73 2.31.85 3.49a4.4 4.4 0 01-.43 2.92c-.42.51-1.74.37-2.67.37-.54 0-1.13-.57-1.6-.47-5.31 1.17-5.3 1.19-8.27-3.13-1.73 3-3.83 5.51-7.73 4.52-3.11-.8-4.88-4.07-5-8.61-.14-4.14 0-8.21 2.85-11.59 2.18-2.6 5.78-3.09 7.38-.8a8.56 8.56 0 011 4.5c0 .54-1.57 1.71-1.86 1.56a20.24 20.24 0 01-3.2-2.68zm14.54 6.39a26.65 26.65 0 00-.5-4.5c-.23-.82-1.1-1.47-1.68-2.2-.65.58-1.84 1.14-1.86 1.73a95.58 95.58 0 00.22 9.87c0 .5 1.16 1.34 1.71 1.28s1.29-1 1.46-1.62a41.63 41.63 0 00.65-4.56zM179.24 382.39c-.06 2.55-1.62 3.5-3.85 3.06s-2.78-2.12-2.53-4.41a87.18 87.18 0 00.37-10.35c0-.77-1-1.53-1.47-2.29-.73.61-2 1.14-2.1 1.87a58.11 58.11 0 00-.62 7.24 22.31 22.31 0 010 3.66 4.85 4.85 0 01-1.68 2.91c-.6.37-1.91-.4-3.25-.75-3.24 2.14-6.21 1-6.47-3.37-.35-6.1-.3-12.22-.21-18.33 0-1 1.18-1.89 1.81-2.83.79.63 1.6 1.24 2.37 1.91s1.67 1.51 2.5 2.28l.7-.37a18.63 18.63 0 00-.54-3c-.63-1.8.09-3.09 1.73-3.06a3.77 3.77 0 012.92 2.12 26.29 26.29 0 01.13 5.82c2.21.22 5-.32 6.1.8 1.46 1.53 1.87 4.28 2.22 6.59s-.13 4.71.16 7c.16 1.25 1.17 2.4 1.79 3.59zm-14.44-17.33l-3.54 2.07c1.6 4.28-1.95 9.75 2.47 13.58l1.07-.13zM305.65 376.8c-5.94.44-8.34-1.86-8.61-7.49a18 18 0 012.56-10.82c1.53-2.39 3.54-3.85 6.67-3.13.81.18 1.8-.61 2.73-.67a5 5 0 012.5.49c.34.16.55 1 .49 1.55q-.81 7.68-1.73 15.33a34 34 0 01-.9 5.71c-1.13 3.76-4.95 6.22-8.52 5.18a5.77 5.77 0 01-3.51-3.45c-.42-1.85 2-2.56 3.92-1.13 2.09 1.56 3.42 1.19 4.4-1.57zm1.35-12.62h-.23a5 5 0 000-1.82 25.14 25.14 0 00-1.68-2.88c-.88.67-2.36 1.22-2.54 2.05a42.37 42.37 0 00-.9 8.41c0 .77 1.28 1.55 2 2.33.74-.7 1.87-1.26 2.16-2.11a48.94 48.94 0 001.19-5.98zM286.76 378.92c-2.06.24-4.75 1.38-6 .48a9.1 9.1 0 01-3.52-6.15 33 33 0 011.56-10.71c1-3.32 3.29-5.57 7.28-5.17 1.47.14 3.86-.64 4.25 0 .74 1.17.41 3.06.36 4.65-.08 2.54-.48 5.08-.37 7.61.08 1.74.85 3.44 1.24 5.18.25 1.12.88 3 .48 3.26a7.73 7.73 0 01-3.77.83c-.48 0-1-.57-1.5-.88-.02.29-.01.6-.01.9zm-.38-14.11l-1.67-3.06c-1 1.09-2.51 2-2.79 3.28a30.13 30.13 0 00-.55 7.77c0 .82 1.21 1.6 1.86 2.4.69-.8 1.78-1.51 2-2.43.55-2.34.77-4.77 1.15-7.96zM241.49 363.28c4.76-.84 7.43 1.26 7.72 5.65s.53 8.91-1.77 13c-1.56 2.81-4.28 4.46-6.63 3.77-3.11-.92-3.77-3.56-3.78-6.28 0-4.06.48-8.12.38-12.16-.06-2.56-1-5.09-1.14-7.66a4.1 4.1 0 011.57-3.28c1.52-.81 3.06 0 3.36 1.88.24 1.62.19 3.24.29 5.08zm-.58 12h.24a22 22 0 000 3.35 9.17 9.17 0 001 2.27c.73-.59 2-1.1 2.11-1.78a98.55 98.55 0 00.86-9.87c0-.5-.86-1.5-1.22-1.45a2.46 2.46 0 00-1.83 1.21c-.51 2.07-.78 4.19-1.16 6.27zM100.13 358.5c4.78-2.64 7.55-1.51 8.82 3.32.62 2.35.74 4.82 1.26 7.19.37 1.65 1.05 3.23 1.56 4.84.28.87 1 2.11.64 2.56a4.33 4.33 0 01-2.86 1.74 3.25 3.25 0 01-2.48-1.73 19.79 19.79 0 01-.74-4.78c-.28-2.42-.34-4.88-.84-7.25-.21-1-1.31-1.75-2-2.61-.75 1-2.14 1.92-2.13 2.88a46.68 46.68 0 001 9.28c.43 2 .13 3.5-1.75 3.81-2.1.35-2.54-1.51-2.73-3.23-.64-5.64-1.22-11.29-2-16.92a9.22 9.22 0 00-1.36-4c-1-1.44-1-2.74.49-3.18a4.93 4.93 0 013.64 1c.62.45.59 1.85.77 2.84.3 1.34.46 2.63.71 4.24z" transform="translate(-6.96 -6.17)"/>
  <path d="M179.29 382.47a90.36 90.36 0 01-.32-9.72 12.18 12.18 0 012-5.34c1.92-3.09 5.19-3.94 7.58-2.33a6 6 0 011 8.44c-1.3 1.57-3.46 2.4-5 3.78-.73.64-1.63 2.12-1.36 2.64.5.94 1.82 1.44 2.8 2.12.56-.93 1.58-1.87 1.56-2.79 0-1.51-.06-3 1.75-2.7a3.77 3.77 0 012.28 2.57 6.14 6.14 0 01-3.78 6.63c-2.75 1.11-5.2.68-7.13-1.72-.45-.56-.91-1.11-1.36-1.66zm3.14-9.71c3.2.65 4.4-.49 4.3-2.68 0-.44-1-.82-1.6-1.23zM263.76 372.06c-.82 2.81-1.2 5.84-2.62 8.25a6.74 6.74 0 01-5.14 2.91c-1.52-.07-3.69-2.06-4.24-3.67-1.82-5.34-2-10.86 1.16-15.87 2.33-3.69 6.56-3.58 8.54.32 1.19 2.35 1.54 5.15 2.3 8.06zm-6.1-7.13c-3 2.7-3.88 10.27-2 12.74 1.13 1.47 2.49 1.22 2.88-.49a21.92 21.92 0 00.46-6.31 38.21 38.21 0 00-1.34-5.94zM344 366.75c.63-.72 1.25-1.45 1.9-2.16a30.58 30.58 0 013.32-3.5 4.11 4.11 0 015.62 0 4.47 4.47 0 011.14 5.56 8.64 8.64 0 01-7.24 5.41c-2.14.29-2.61 1.44-1.86 3.18a2.7 2.7 0 001.77 1.31c.43.06 1-.72 1.49-1.2a12.57 12.57 0 012.25-2.44c.3-.19 2 .88 2 1.36a6.15 6.15 0 01-1.07 3.56c-2.16 2.77-5.67 3.64-8.15 2.33-2.67-1.42-3.56-4.27-2.52-8 .5-1.82 1-3.65 1.48-5.47zm3.86 1.55c4.15-.8 5.12-2.13 3.77-4.89-1.17 1.59-2.23 2.95-3.73 4.89zM83.16 372.45a5.14 5.14 0 01-4.37 5.05 6 6 0 01-6.64-3.74c-.86-2.27-1.13-4.75-1.92-7.05-.64-1.84-1.88-3.49-2.44-5.35a3.53 3.53 0 01.86-2.93c1.45-1.43 3.06-.64 3.72.88a33.4 33.4 0 011.47 5.85 49.28 49.28 0 001.49 6.21c.3.8 1.6 1.22 2.44 1.81.48-.91 1.47-1.89 1.34-2.7-.45-2.79-1.41-5.51-1.94-8.29a9 9 0 01.18-4c.13-.44 1.62-.77 2.4-.63a2.44 2.44 0 011.61 1.56c.64 4.28 1.18 8.61 1.8 13.33zM58.72 377a83.37 83.37 0 01-2.62-8 12.39 12.39 0 010-5.42c1.12-4.68 5.72-5.87 9.05-2.43a15.44 15.44 0 014.2 12.85c-.42 3.95-4.44 5.89-8 4.14l-2.7-1.28zm7.28-5.87c-1-2.42-1.75-4.5-2.77-6.43-.35-.66-1.4-1-2.13-1.42-.47.84-1.37 1.7-1.32 2.51a17.48 17.48 0 001.15 5.89c.49 1.15 2 1.88 3 2.8z" transform="translate(-6.96 -6.17)"/>
  <path d="M58.72 377l-.1-.1a13 13 0 01-2.13 3.32c-.29.25-2.32-.69-2.71-1.49-2.21-4.58-4.21-9.26-6.18-14-1-2.3-1.74-4.42-4.93-2.48-.57.35-1.9-.53-2.88-.84.45-.91.68-2.37 1.38-2.65 4-1.59 8-3 12.08-4.25 1.82-.55 3.25.32 3.22 2.51 0 1.93-.93 2.34-2.82 1.86-1-.26-2.27.47-4 .9 2.41 5.4 4.62 10.48 7 15.49.35.73 1.35 1.14 2.07 1.73zM88.86 360.77c-1.64 2.9-1.4 9.2.33 11.09a2.44 2.44 0 002.06.72 2.23 2.23 0 001.17-1.79c-.17-1.83.11-3.27 2.27-2.94s2.47 2.08 2 4A6.39 6.39 0 0191 377a5.43 5.43 0 01-5.91-4.32 41 41 0 01-1.26-10.21 5.9 5.9 0 014.62-5.81c2.4-.68 5.05.58 5.51 3 .19 1.06-.62 2.31-1 3.47a32 32 0 01-3-1c-.38-.13-.6-.73-1.1-1.36zM268.79 364.59v9.31c0 1.67.41 2.62 2.44 2.6s2.88 1.84 1.45 3.29c-1.06 1.06-3.13 2.08-4.39 1.75a6 6 0 01-3.58-3.53c-.62-2-.21-4.37-.21-6.57v-11.32a7.36 7.36 0 01.4-3c.38-.79 1.33-1.78 2.05-1.8a2.86 2.86 0 012.15 1.68c.5 1.61.88 2.85 2.95 2.78.56 0 1.62.89 1.61 1.36a3 3 0 01-1.14 2.24 16.2 16.2 0 01-3.73 1.21zM223.89 373.92c.19-4.05.27-7.61.62-11.15.09-.9 1.05-1.71 1.62-2.56.79.54 1.61 1 2.35 1.62a36.2 36.2 0 013 2.58c.66.64 1.71 1.52 1.61 2.13a2.73 2.73 0 01-2.05 1.72c-2.43-.05-2.9 1.11-2.78 3.21.15 2.33-.13 4.69.1 7 .17 1.68.08 3.74 2.83 3.92 1.71.11 1.94 1.72.86 2.65s-2.92 2-4.1 1.73a5.2 5.2 0 01-3.26-3.32 69.52 69.52 0 01-.8-9.53zM149.2 366.22c0 2.84-.11 6.09.07 9.32 0 .85 1 1.66 1.51 2.45s1.22 1.63 1.83 2.44c-1.46.58-3.36 2-4.29 1.54a6.37 6.37 0 01-3.14-4.26c-.47-6.09-.46-12.22-.42-18.34 0-.94 1.12-1.88 1.72-2.82a19.1 19.1 0 012.27 2.12 33.79 33.79 0 011.8 3c.54.87 1.14 1.71 1.72 2.56zM291.54 287.59c-1.54 1.51-2.75 3.43-3.54 3.27a4.73 4.73 0 01-3.13-3c-.18-.83 1.59-2.82 2.68-3s2.27 1.49 3.99 2.73zM116.82 62.18c-2.15 5.28-3.68 5.86-8.75 3.3-1.81-.92-3.6-1.89-5.38-2.88-.22-.12-.33-.45-.5-.69 10.06-6.31 12.15-10.14 8.16-16.41 1.81.24 3.1.3 4.35.59a11.83 11.83 0 018.45 7.31c1.94 4.6-.95 8.47-6.33 8.78zM114.75 96.79c-.37 3.85-.62 7.71-1.2 11.52-.15 1-1.35 1.75-2.07 2.62-.73-.76-1.86-1.42-2.09-2.3a22 22 0 01-.49-5.44c0-4.38.22-8.76.36-13.14a4.63 4.63 0 01.29-2.1 24.76 24.76 0 012.32-2.95c.77 1 2.1 1.85 2.21 2.87a87.2 87.2 0 01.1 8.86zM124.82 100.84c-.44 3.3-.74 6.63-1.41 9.88-.19.9-1.52 1.56-2.33 2.33-.57-.85-1.62-1.68-1.64-2.54-.17-5.45-.21-10.91 0-16.36 0-.88 1.42-1.71 2.18-2.57.71.75 1.85 1.4 2 2.26a66.75 66.75 0 01.85 6.94zM134.24 107.27c-.32 2.44-.5 5.18-1.1 7.83-.23 1-1.45 1.7-2.22 2.54-.73-.84-2.07-1.68-2.09-2.54-.1-4.73 0-9.48.32-14.21 0-.81 1.33-1.55 2-2.31.72.7 1.85 1.28 2.07 2.12a53.22 53.22 0 011.02 6.57zM105 95.79a38 38 0 01-.72 6.29c-.28 1-1.64 1.78-2.51 2.65-.7-.9-2-1.77-2-2.71a85.21 85.21 0 010-11.85c.09-1.16 1.52-3 2.56-3.14 2.07-.33 2 1.67 2.15 3.22.14 1.83.35 3.64.52 5.54zM143.57 117a52.4 52.4 0 01-1 6.28 2.81 2.81 0 01-2.17 1.72 2.72 2.72 0 01-1.88-1.92c-.13-4.57-.12-9.16.15-13.72.05-.82 1.54-1.55 2.36-2.32.7.89 1.9 1.72 2 2.67a59.36 59.36 0 01.1 7.31zM95.41 93.59l-3 3.8a38.66 38.66 0 01-2.5-4.39 2.68 2.68 0 01.51-2.27 14.75 14.75 0 012.74-2 23.06 23.06 0 011.47 2.6 5.61 5.61 0 01.14 1.8zM102.17 39.58c.85-1.22 1.45-3.09 2.6-3.53 2.26-.87 4.81-.91 6.7 2.66l-8.22 1.91zM130.49 36.58c-1.07-1.65-2.15-2.76-1.94-3.1a27.42 27.42 0 013.12-3.73c.51.61 1.55 1.4 1.42 1.79a39.81 39.81 0 01-2.6 5.04z" transform="translate(-6.96 -6.17)"/>
</svg>
